<mxfile host="Electron" modified="2024-04-03T20:25:36.029Z" agent="Mozilla/5.0 (Windows NT 10.0; Win64; x64) AppleWebKit/537.36 (KHTML, like Gecko) draw.io/23.0.2 Chrome/120.0.6099.109 Electron/28.1.0 Safari/537.36" etag="00wlY3WuUejFQI35vkeT" version="23.0.2" type="device">
  <diagram id="C5RBs43oDa-KdzZeNtuy" name="Page-1">
    <mxGraphModel dx="813" dy="2005" grid="1" gridSize="10" guides="1" tooltips="1" connect="1" arrows="1" fold="1" page="1" pageScale="1" pageWidth="827" pageHeight="1169" math="0" shadow="0">
      <root>
        <mxCell id="WIyWlLk6GJQsqaUBKTNV-0" />
        <mxCell id="WIyWlLk6GJQsqaUBKTNV-1" parent="WIyWlLk6GJQsqaUBKTNV-0" />
        <mxCell id="m8huHzXazOFPARdEXykY-0" value="start" style="strokeWidth=2;html=1;shape=mxgraph.flowchart.start_1;whiteSpace=wrap;" vertex="1" parent="WIyWlLk6GJQsqaUBKTNV-1">
          <mxGeometry x="350" y="-40" width="70" height="40" as="geometry" />
        </mxCell>
        <mxCell id="m8huHzXazOFPARdEXykY-1" value="Impor&lt;br&gt;(cv2, numpy, files)" style="rounded=1;whiteSpace=wrap;html=1;absoluteArcSize=1;arcSize=14;strokeWidth=2;" vertex="1" parent="WIyWlLk6GJQsqaUBKTNV-1">
          <mxGeometry x="330" y="30" width="110" height="50" as="geometry" />
        </mxCell>
        <mxCell id="m8huHzXazOFPARdEXykY-3" value="Unggah gambar&lt;br style=&quot;font-size: 11px;&quot;&gt;(ke sesi google collab)" style="rounded=1;whiteSpace=wrap;html=1;absoluteArcSize=1;arcSize=14;strokeWidth=2;fontSize=11;" vertex="1" parent="WIyWlLk6GJQsqaUBKTNV-1">
          <mxGeometry x="330" y="120" width="110" height="50" as="geometry" />
        </mxCell>
        <mxCell id="m8huHzXazOFPARdEXykY-4" value="Ambil nama file gambar" style="rounded=1;whiteSpace=wrap;html=1;absoluteArcSize=1;arcSize=14;strokeWidth=2;" vertex="1" parent="WIyWlLk6GJQsqaUBKTNV-1">
          <mxGeometry x="330" y="200" width="110" height="50" as="geometry" />
        </mxCell>
        <mxCell id="m8huHzXazOFPARdEXykY-5" value="Baca dan muat gambar di variabel" style="rounded=1;whiteSpace=wrap;html=1;absoluteArcSize=1;arcSize=14;strokeWidth=2;" vertex="1" parent="WIyWlLk6GJQsqaUBKTNV-1">
          <mxGeometry x="330" y="280" width="110" height="50" as="geometry" />
        </mxCell>
        <mxCell id="m8huHzXazOFPARdEXykY-23" style="edgeStyle=orthogonalEdgeStyle;rounded=0;orthogonalLoop=1;jettySize=auto;html=1;exitX=1;exitY=0.5;exitDx=0;exitDy=0;exitPerimeter=0;entryX=0;entryY=0.5;entryDx=0;entryDy=0;" edge="1" parent="WIyWlLk6GJQsqaUBKTNV-1" source="m8huHzXazOFPARdEXykY-8" target="m8huHzXazOFPARdEXykY-9">
          <mxGeometry relative="1" as="geometry" />
        </mxCell>
        <mxCell id="m8huHzXazOFPARdEXykY-30" style="edgeStyle=orthogonalEdgeStyle;rounded=0;orthogonalLoop=1;jettySize=auto;html=1;entryX=1;entryY=0.5;entryDx=0;entryDy=0;" edge="1" parent="WIyWlLk6GJQsqaUBKTNV-1" source="m8huHzXazOFPARdEXykY-8" target="m8huHzXazOFPARdEXykY-14">
          <mxGeometry relative="1" as="geometry" />
        </mxCell>
        <mxCell id="m8huHzXazOFPARdEXykY-8" value="Ketersediaan gambar" style="strokeWidth=2;html=1;shape=mxgraph.flowchart.decision;whiteSpace=wrap;" vertex="1" parent="WIyWlLk6GJQsqaUBKTNV-1">
          <mxGeometry x="309.25" y="360" width="157.5" height="70" as="geometry" />
        </mxCell>
        <mxCell id="m8huHzXazOFPARdEXykY-24" style="edgeStyle=orthogonalEdgeStyle;rounded=0;orthogonalLoop=1;jettySize=auto;html=1;entryX=0.5;entryY=0;entryDx=0;entryDy=0;" edge="1" parent="WIyWlLk6GJQsqaUBKTNV-1" source="m8huHzXazOFPARdEXykY-9" target="m8huHzXazOFPARdEXykY-10">
          <mxGeometry relative="1" as="geometry" />
        </mxCell>
        <mxCell id="m8huHzXazOFPARdEXykY-9" value="translasi:&lt;br&gt;tx = 50 (horizontal)&lt;br&gt;ty = 30 (vertikal)" style="rounded=1;whiteSpace=wrap;html=1;absoluteArcSize=1;arcSize=14;strokeWidth=2;align=center;" vertex="1" parent="WIyWlLk6GJQsqaUBKTNV-1">
          <mxGeometry x="550" y="370" width="111" height="50" as="geometry" />
        </mxCell>
        <mxCell id="m8huHzXazOFPARdEXykY-25" style="edgeStyle=orthogonalEdgeStyle;rounded=0;orthogonalLoop=1;jettySize=auto;html=1;" edge="1" parent="WIyWlLk6GJQsqaUBKTNV-1" source="m8huHzXazOFPARdEXykY-10" target="m8huHzXazOFPARdEXykY-11">
          <mxGeometry relative="1" as="geometry" />
        </mxCell>
        <mxCell id="m8huHzXazOFPARdEXykY-10" value="Buat matriks transformasi&lt;br&gt;np.float32()" style="rounded=1;whiteSpace=wrap;html=1;absoluteArcSize=1;arcSize=14;strokeWidth=2;align=center;" vertex="1" parent="WIyWlLk6GJQsqaUBKTNV-1">
          <mxGeometry x="550" y="460" width="111" height="50" as="geometry" />
        </mxCell>
        <mxCell id="m8huHzXazOFPARdEXykY-26" style="edgeStyle=orthogonalEdgeStyle;rounded=0;orthogonalLoop=1;jettySize=auto;html=1;" edge="1" parent="WIyWlLk6GJQsqaUBKTNV-1" source="m8huHzXazOFPARdEXykY-11" target="m8huHzXazOFPARdEXykY-12">
          <mxGeometry relative="1" as="geometry" />
        </mxCell>
        <mxCell id="m8huHzXazOFPARdEXykY-11" value="Translasi pada gambar asli&lt;br&gt;cv2.warpAffine()" style="rounded=1;whiteSpace=wrap;html=1;absoluteArcSize=1;arcSize=14;strokeWidth=2;align=center;" vertex="1" parent="WIyWlLk6GJQsqaUBKTNV-1">
          <mxGeometry x="550" y="550" width="111" height="50" as="geometry" />
        </mxCell>
        <mxCell id="m8huHzXazOFPARdEXykY-27" style="edgeStyle=orthogonalEdgeStyle;rounded=0;orthogonalLoop=1;jettySize=auto;html=1;" edge="1" parent="WIyWlLk6GJQsqaUBKTNV-1" source="m8huHzXazOFPARdEXykY-12" target="m8huHzXazOFPARdEXykY-13">
          <mxGeometry relative="1" as="geometry" />
        </mxCell>
        <mxCell id="m8huHzXazOFPARdEXykY-12" value="Tampilkan ambar asli" style="rounded=1;whiteSpace=wrap;html=1;absoluteArcSize=1;arcSize=14;strokeWidth=2;align=center;" vertex="1" parent="WIyWlLk6GJQsqaUBKTNV-1">
          <mxGeometry x="550" y="640" width="111" height="50" as="geometry" />
        </mxCell>
        <mxCell id="m8huHzXazOFPARdEXykY-29" style="edgeStyle=orthogonalEdgeStyle;rounded=0;orthogonalLoop=1;jettySize=auto;html=1;entryX=1;entryY=0.5;entryDx=0;entryDy=0;" edge="1" parent="WIyWlLk6GJQsqaUBKTNV-1" source="m8huHzXazOFPARdEXykY-13" target="m8huHzXazOFPARdEXykY-20">
          <mxGeometry relative="1" as="geometry" />
        </mxCell>
        <mxCell id="m8huHzXazOFPARdEXykY-13" value="Tampilkan gambar translasi" style="rounded=1;whiteSpace=wrap;html=1;absoluteArcSize=1;arcSize=14;strokeWidth=2;align=center;" vertex="1" parent="WIyWlLk6GJQsqaUBKTNV-1">
          <mxGeometry x="550" y="730" width="111" height="50" as="geometry" />
        </mxCell>
        <mxCell id="m8huHzXazOFPARdEXykY-31" style="edgeStyle=orthogonalEdgeStyle;rounded=0;orthogonalLoop=1;jettySize=auto;html=1;entryX=0;entryY=0.5;entryDx=0;entryDy=0;" edge="1" parent="WIyWlLk6GJQsqaUBKTNV-1" source="m8huHzXazOFPARdEXykY-14" target="m8huHzXazOFPARdEXykY-20">
          <mxGeometry relative="1" as="geometry">
            <Array as="points">
              <mxPoint x="165" y="755" />
            </Array>
          </mxGeometry>
        </mxCell>
        <mxCell id="m8huHzXazOFPARdEXykY-14" value="Print pesan error" style="rounded=1;whiteSpace=wrap;html=1;absoluteArcSize=1;arcSize=14;strokeWidth=2;align=center;" vertex="1" parent="WIyWlLk6GJQsqaUBKTNV-1">
          <mxGeometry x="100" y="370" width="130" height="50" as="geometry" />
        </mxCell>
        <mxCell id="m8huHzXazOFPARdEXykY-16" value="" style="endArrow=classic;html=1;rounded=0;exitX=0.5;exitY=1;exitDx=0;exitDy=0;" edge="1" parent="WIyWlLk6GJQsqaUBKTNV-1" source="m8huHzXazOFPARdEXykY-1" target="m8huHzXazOFPARdEXykY-3">
          <mxGeometry width="50" height="50" relative="1" as="geometry">
            <mxPoint x="230" y="420" as="sourcePoint" />
            <mxPoint x="280" y="370" as="targetPoint" />
          </mxGeometry>
        </mxCell>
        <mxCell id="m8huHzXazOFPARdEXykY-17" value="" style="endArrow=classic;html=1;rounded=0;exitX=0.5;exitY=1;exitDx=0;exitDy=0;" edge="1" parent="WIyWlLk6GJQsqaUBKTNV-1" source="m8huHzXazOFPARdEXykY-3" target="m8huHzXazOFPARdEXykY-4">
          <mxGeometry width="50" height="50" relative="1" as="geometry">
            <mxPoint x="395" y="90" as="sourcePoint" />
            <mxPoint x="395" y="130" as="targetPoint" />
          </mxGeometry>
        </mxCell>
        <mxCell id="m8huHzXazOFPARdEXykY-18" value="" style="endArrow=classic;html=1;rounded=0;exitX=0.5;exitY=1;exitDx=0;exitDy=0;entryX=0.5;entryY=0;entryDx=0;entryDy=0;" edge="1" parent="WIyWlLk6GJQsqaUBKTNV-1" source="m8huHzXazOFPARdEXykY-4" target="m8huHzXazOFPARdEXykY-5">
          <mxGeometry width="50" height="50" relative="1" as="geometry">
            <mxPoint x="395" y="180" as="sourcePoint" />
            <mxPoint x="395" y="210" as="targetPoint" />
          </mxGeometry>
        </mxCell>
        <mxCell id="m8huHzXazOFPARdEXykY-19" value="" style="endArrow=classic;html=1;rounded=0;exitX=0.5;exitY=1;exitDx=0;exitDy=0;entryX=0.5;entryY=0;entryDx=0;entryDy=0;entryPerimeter=0;" edge="1" parent="WIyWlLk6GJQsqaUBKTNV-1" target="m8huHzXazOFPARdEXykY-8">
          <mxGeometry width="50" height="50" relative="1" as="geometry">
            <mxPoint x="387.41" y="330" as="sourcePoint" />
            <mxPoint x="380.00259259259263" y="430" as="targetPoint" />
          </mxGeometry>
        </mxCell>
        <mxCell id="m8huHzXazOFPARdEXykY-33" style="edgeStyle=orthogonalEdgeStyle;rounded=0;orthogonalLoop=1;jettySize=auto;html=1;" edge="1" parent="WIyWlLk6GJQsqaUBKTNV-1" source="m8huHzXazOFPARdEXykY-20" target="m8huHzXazOFPARdEXykY-32">
          <mxGeometry relative="1" as="geometry" />
        </mxCell>
        <mxCell id="m8huHzXazOFPARdEXykY-20" value="" style="rhombus;whiteSpace=wrap;html=1;" vertex="1" parent="WIyWlLk6GJQsqaUBKTNV-1">
          <mxGeometry x="377" y="742.5" width="22" height="25" as="geometry" />
        </mxCell>
        <mxCell id="m8huHzXazOFPARdEXykY-32" value="stop" style="strokeWidth=2;html=1;shape=mxgraph.flowchart.start_1;whiteSpace=wrap;" vertex="1" parent="WIyWlLk6GJQsqaUBKTNV-1">
          <mxGeometry x="353" y="810" width="70" height="40" as="geometry" />
        </mxCell>
      </root>
    </mxGraphModel>
  </diagram>
</mxfile>
